<?xml version="1.0" encoding="utf-8"?>
<!-- Generator: Adobe Illustrator 24.0.1, SVG Export Plug-In . SVG Version: 6.00 Build 0)  -->
<svg version="1.1" id="Layer_1" xmlns="http://www.w3.org/2000/svg" xmlns:xlink="http://www.w3.org/1999/xlink" x="0px" y="0px"
	 viewBox="0 0 612.59 770.43" style="enable-background:new 0 0 612.59 770.43;" xml:space="preserve">
<style type="text/css">
	.st0{fill:#FFFFFF;}
</style>
<g>
	<g>
		<path class="st0" d="M400.11,427.97c-66.7,0-133.36,0-200,0c0-66.7,0-133.36,0-200c66.7,0,133.36,0,200,0
			C400.11,294.67,400.11,361.33,400.11,427.97z M317.12,301.37c-0.01,13.63-3.72,16.32-16.47,12.77c-4.16-1.16-8.4-2.2-12.67-2.71
			c-23.79-2.83-43.59,3.82-56.64,25.08c-9.18,14.96-9.91,31.49-7.69,48.33c0.59,4.47,0.86,8.11-2.3,12.34
			c-6.34,8.51-2.33,17.51,7.98,20.15c5.88,1.5,11.08-0.14,16.34-2.68c1.95-0.94,4.63-1.14,6.79-0.73
			c7.16,1.37,14.19,4.22,21.36,4.59c14.46,0.74,28.98,0.29,43.48,0.11c1.67-0.02,4.3-1.1,4.75-2.32c0.6-1.64,0.19-4.82-1-5.71
			c-3.47-2.6-7.37-4.89-11.45-6.36c-3.36-1.22-7.2-1.1-10.59-1.55c6.46-2.75,12.94-5.51,19.43-8.27c1.54,4.23,2.94,8.84,4.86,13.22
			c3.89,8.88,10.7,12.25,20.18,10.36c3.88-0.77,5.88-3.98,3.85-7.32c-1.23-2.02-3.71-3.67-6-4.53c-2.4-0.91-3.04-1.81-2.65-4.31
			c0.77-4.93,1.56-9.92,1.6-14.88c0.04-5.26,1.84-8.86,6.26-11.92c3.62-2.52,6.66-6.05,9.46-9.53c6.03-7.49,9.69-15.87,8.38-25.82
			c-1.3-9.93-0.3-12.06,8.72-17.09c5.02-2.79,7.35-7.53,8.12-12.51c0.36-2.32-2.67-5.24-4.31-7.79c-1.44-2.24-3.43-4.17-4.58-6.53
			c-4.23-8.62-11.46-13.28-20.35-15.5c-2.97-0.74-3.7-2.29-4.73-4.76c-3.5-8.38-6.73-17.01-11.4-24.73
			c-5.11-8.45-12.9-14.56-22.23-19.16c-2.22,9.76-1.56,18.94,0.81,28.01c2.46,9.42,7.73,17.11,15.71,23.67
			c-2.33,1.12-4.77,2.26-6.82,1.78c-8.19-1.93-16.13-5.21-24.39-6.4c-10.67-1.53-21.26,0.55-32.31,4
			C280.73,297.68,298.5,300.33,317.12,301.37z"/>
		<path d="M317.12,301.37c-18.62-1.04-36.39-3.69-50.5-18.72c11.05-3.45,21.64-5.53,32.31-4c8.26,1.19,16.21,4.47,24.39,6.4
			c2.05,0.48,4.48-0.66,6.82-1.78c-7.98-6.56-13.25-14.25-15.71-23.67c-2.37-9.06-3.03-18.25-0.81-28.01
			c9.33,4.6,17.12,10.71,22.23,19.16c4.67,7.73,7.9,16.35,11.4,24.73c1.03,2.47,1.77,4.02,4.73,4.76
			c8.89,2.22,16.13,6.89,20.35,15.5c1.16,2.36,3.14,4.29,4.58,6.53c1.64,2.55,4.67,5.47,4.31,7.79c-0.78,4.98-3.11,9.72-8.12,12.51
			c-9.02,5.03-10.02,7.16-8.72,17.09c1.31,9.96-2.35,18.34-8.38,25.82c-2.8,3.48-5.84,7.02-9.46,9.53
			c-4.42,3.07-6.21,6.66-6.26,11.92c-0.04,4.97-0.83,9.95-1.6,14.88c-0.39,2.49,0.25,3.4,2.65,4.31c2.28,0.86,4.77,2.52,6,4.53
			c2.03,3.34,0.04,6.54-3.85,7.32c-9.47,1.89-16.29-1.48-20.18-10.36c-1.92-4.38-3.32-8.98-4.86-13.22
			c-6.5,2.77-12.97,5.52-19.43,8.27c3.39,0.44,7.23,0.33,10.59,1.55c4.07,1.48,7.97,3.76,11.45,6.36c1.19,0.9,1.6,4.08,1,5.71
			c-0.45,1.22-3.08,2.3-4.75,2.32c-14.49,0.18-29.02,0.63-43.48-0.11c-7.18-0.37-14.2-3.22-21.36-4.59
			c-2.16-0.41-4.84-0.21-6.79,0.73c-5.26,2.54-10.46,4.18-16.34,2.68c-10.32-2.64-14.32-11.64-7.98-20.15
			c3.15-4.23,2.89-7.87,2.3-12.34c-2.22-16.84-1.5-33.38,7.69-48.33c13.05-21.26,32.85-27.91,56.64-25.08
			c4.27,0.51,8.52,1.55,12.67,2.71C313.4,317.69,317.11,315,317.12,301.37z"/>
	</g>
</g>
<path class="st0" d="M219.15,360.2c-1.14,0-2.27-0.49-3.06-1.43c-1.42-1.69-1.2-4.21,0.49-5.64c8.21-6.9,31.14-3.93,42.52-1.91
	c-0.6-5.01-1.46-12.81-1.99-20.8c-1.69-25.4,1.14-31.33,4.12-33.78c1.71-1.4,4.23-1.15,5.63,0.56c1.38,1.69,1.16,4.17-0.5,5.58
	c-0.38,0.48-2.84,4.59-1.22,27.95c0.89,12.78,2.56,24.79,2.58,24.91c0.18,1.29-0.28,2.59-1.23,3.48c-0.95,0.89-2.28,1.26-3.56,0.99
	c-14-2.97-36.05-5.19-41.22-0.85C220.97,359.89,220.06,360.2,219.15,360.2z M266.32,302.82c0,0-0.01,0.01-0.01,0.01
	C266.31,302.83,266.31,302.82,266.32,302.82z"/>
<g>
	<path d="M195.83,493.82c0,0.27-0.07,0.4-0.2,0.4c-1.16,0-2.08-0.02-2.75-0.07l-4.02-0.07l-3.89,0.07
		c-0.72,0.04-1.65,0.07-2.81,0.07c-0.13,0-0.2-0.13-0.2-0.4c0-0.27,0.07-0.4,0.2-0.4c1.38,0,2.32-0.32,2.81-0.97
		c0.49-0.65,0.74-1.86,0.74-3.65v-9.65c0-2.41-0.44-4.2-1.31-5.36s-2.24-1.74-4.12-1.74c-1.07,0-2.18,0.22-3.32,0.67
		c-1.14,0.45-2.13,1.05-2.98,1.81v14.27c0,1.79,0.26,3,0.77,3.65c0.51,0.65,1.46,0.97,2.85,0.97c0.13,0,0.2,0.13,0.2,0.4
		c0,0.27-0.07,0.4-0.2,0.4c-1.16,0-2.08-0.02-2.75-0.07l-4.02-0.07l-3.95,0.07c-0.67,0.04-1.59,0.07-2.75,0.07
		c-0.13,0-0.2-0.13-0.2-0.4c0-0.27,0.07-0.4,0.2-0.4c1.38,0,2.32-0.32,2.81-0.97c0.49-0.65,0.74-1.86,0.74-3.65v-12.6
		c0-1.38-0.17-2.4-0.5-3.05s-0.86-0.97-1.57-0.97c-0.76,0-1.83,0.31-3.22,0.94h-0.13c-0.13,0-0.23-0.11-0.3-0.33
		c-0.07-0.22-0.06-0.36,0.03-0.4l9.31-4.56c0.27-0.09,0.42-0.13,0.47-0.13c0.49,0,0.96,0.48,1.41,1.44c0.45,0.96,0.71,2.27,0.8,3.92
		c3.08-3.66,6.48-5.49,10.18-5.49c2.41,0,4.32,0.77,5.73,2.31s2.11,3.56,2.11,6.06v12.86c0,1.79,0.26,3,0.77,3.65
		c0.51,0.65,1.46,0.97,2.85,0.97C195.76,493.42,195.83,493.56,195.83,493.82z"/>
	<path d="M222.76,489.8c0.09,0,0.19,0.09,0.3,0.27c0.11,0.18,0.12,0.31,0.03,0.4c-1.65,1.61-3.33,2.77-5.02,3.48
		c-1.7,0.71-3.55,1.07-5.56,1.07c-2.81,0-5.25-0.59-7.3-1.78c-2.05-1.18-3.62-2.77-4.69-4.76c-1.07-1.99-1.61-4.14-1.61-6.47
		c0-2.59,0.65-4.98,1.94-7.17c1.29-2.19,3.09-3.92,5.39-5.19c2.3-1.27,4.9-1.91,7.81-1.91c2.77,0,4.91,0.63,6.43,1.88
		c1.52,1.25,2.28,3.19,2.28,5.83c0,1.38-0.25,2.08-0.74,2.08l-16.28,0.07c-0.04,0.31-0.07,0.83-0.07,1.54c0,3.93,0.9,7.01,2.71,9.25
		c1.81,2.23,4.41,3.35,7.81,3.35c1.21,0,2.23-0.13,3.08-0.4c0.85-0.27,1.96-0.76,3.35-1.47L222.76,489.8z M207.82,471.01
		c-0.98,1.27-1.63,3.03-1.94,5.26l9.72-0.13c-0.04-2.28-0.38-4.02-1.01-5.23c-0.63-1.21-1.65-1.81-3.08-1.81
		C210.03,469.1,208.81,469.74,207.82,471.01z"/>
	<path d="M255.33,468.77c0,0.27-0.04,0.4-0.13,0.4c-1.3,0-2.45,0.49-3.45,1.47c-1,0.98-1.96,2.5-2.85,4.56l-8.24,19.03
		c-0.04,0.22-0.29,0.33-0.74,0.33c-0.36,0-0.6-0.11-0.74-0.33l-10.25-20.3c-0.94-1.96-1.77-3.25-2.48-3.85
		c-0.71-0.6-1.59-0.9-2.61-0.9c-0.13,0-0.2-0.13-0.2-0.4s0.07-0.4,0.2-0.4c0.8,0,1.47,0.02,2.01,0.07l4.49,0.07l5.16-0.07
		c0.76-0.04,1.81-0.07,3.15-0.07c0.13,0,0.2,0.13,0.2,0.4s-0.07,0.4-0.2,0.4c-2.59,0-3.89,0.51-3.89,1.54
		c0,0.27,0.11,0.63,0.33,1.07l7.5,14.07l4.42-10.72c0.36-0.94,0.54-1.74,0.54-2.41c0-1.12-0.38-1.99-1.14-2.61
		c-0.76-0.63-1.81-0.94-3.15-0.94c-0.09,0-0.13-0.13-0.13-0.4s0.04-0.4,0.13-0.4c1.21,0,2.12,0.02,2.75,0.07l4.02,0.07l2.68-0.07
		c0.54-0.04,1.36-0.07,2.48-0.07C255.28,468.36,255.33,468.5,255.33,468.77z"/>
	<path d="M280.25,489.8c0.09,0,0.19,0.09,0.3,0.27c0.11,0.18,0.12,0.31,0.03,0.4c-1.65,1.61-3.33,2.77-5.03,3.48
		c-1.7,0.71-3.55,1.07-5.56,1.07c-2.81,0-5.25-0.59-7.3-1.78c-2.06-1.18-3.62-2.77-4.69-4.76c-1.07-1.99-1.61-4.14-1.61-6.47
		c0-2.59,0.65-4.98,1.94-7.17c1.29-2.19,3.09-3.92,5.39-5.19c2.3-1.27,4.9-1.91,7.81-1.91c2.77,0,4.91,0.63,6.43,1.88
		c1.52,1.25,2.28,3.19,2.28,5.83c0,1.38-0.25,2.08-0.74,2.08l-16.28,0.07c-0.04,0.31-0.07,0.83-0.07,1.54c0,3.93,0.9,7.01,2.71,9.25
		c1.81,2.23,4.41,3.35,7.81,3.35c1.21,0,2.23-0.13,3.08-0.4c0.85-0.27,1.96-0.76,3.35-1.47L280.25,489.8z M265.31,471.01
		c-0.98,1.27-1.63,3.03-1.94,5.26l9.71-0.13c-0.04-2.28-0.38-4.02-1-5.23c-0.63-1.21-1.65-1.81-3.08-1.81
		C267.52,469.1,266.29,469.74,265.31,471.01z"/>
	<path d="M305.27,468.8c0.96,0.74,1.44,1.62,1.44,2.65c0,0.94-0.29,1.71-0.87,2.31c-0.58,0.6-1.34,0.9-2.28,0.9
		c-0.67,0-1.22-0.13-1.64-0.4c-0.42-0.27-0.86-0.67-1.31-1.21c-0.4-0.45-0.75-0.77-1.04-0.97c-0.29-0.2-0.64-0.3-1.04-0.3
		c-0.45,0-0.93,0.17-1.44,0.5c-0.51,0.33-1.31,1.04-2.38,2.11v14.41c0,1.79,0.42,3,1.27,3.65c0.85,0.65,2.41,0.97,4.69,0.97
		c0.18,0,0.27,0.13,0.27,0.4c0,0.27-0.09,0.4-0.27,0.4c-1.56,0-2.79-0.02-3.68-0.07l-5.43-0.07l-3.95,0.07
		c-0.67,0.04-1.59,0.07-2.75,0.07c-0.13,0-0.2-0.13-0.2-0.4c0-0.27,0.07-0.4,0.2-0.4c1.38,0,2.32-0.32,2.81-0.97
		c0.49-0.65,0.74-1.86,0.74-3.65v-12.6c0-1.38-0.17-2.4-0.5-3.05s-0.86-0.97-1.57-0.97c-0.76,0-1.83,0.31-3.22,0.94H283
		c-0.13,0-0.23-0.11-0.3-0.33c-0.07-0.22-0.06-0.36,0.03-0.4l9.31-4.56c0.27-0.09,0.42-0.13,0.47-0.13c0.49,0,0.95,0.46,1.37,1.37
		c0.42,0.92,0.68,2.16,0.77,3.72c1.83-1.88,3.34-3.19,4.52-3.95c1.18-0.76,2.22-1.14,3.12-1.14
		C303.32,467.69,304.31,468.06,305.27,468.8z"/>
	<path d="M341.96,493.82c0,0.27-0.07,0.4-0.2,0.4c-1.16,0-2.08-0.02-2.75-0.07l-4.02-0.07l-3.89,0.07
		c-0.71,0.04-1.65,0.07-2.81,0.07c-0.13,0-0.2-0.13-0.2-0.4c0-0.27,0.07-0.4,0.2-0.4c1.38,0,2.32-0.32,2.81-0.97
		c0.49-0.65,0.74-1.86,0.74-3.65v-9.65c0-2.41-0.43-4.2-1.31-5.36s-2.25-1.74-4.12-1.74c-1.07,0-2.18,0.22-3.32,0.67
		c-1.14,0.45-2.13,1.05-2.98,1.81v14.27c0,1.79,0.26,3,0.77,3.65c0.51,0.65,1.46,0.97,2.85,0.97c0.13,0,0.2,0.13,0.2,0.4
		c0,0.27-0.07,0.4-0.2,0.4c-1.16,0-2.08-0.02-2.75-0.07l-4.02-0.07l-3.95,0.07c-0.67,0.04-1.59,0.07-2.75,0.07
		c-0.13,0-0.2-0.13-0.2-0.4c0-0.27,0.07-0.4,0.2-0.4c1.38,0,2.32-0.32,2.81-0.97c0.49-0.65,0.74-1.86,0.74-3.65v-12.6
		c0-1.38-0.17-2.4-0.5-3.05s-0.86-0.97-1.57-0.97c-0.76,0-1.83,0.31-3.22,0.94h-0.13c-0.13,0-0.23-0.11-0.3-0.33
		c-0.07-0.22-0.06-0.36,0.03-0.4l9.31-4.56c0.27-0.09,0.42-0.13,0.47-0.13c0.49,0,0.96,0.48,1.41,1.44c0.45,0.96,0.71,2.27,0.8,3.92
		c3.08-3.66,6.48-5.49,10.18-5.49c2.41,0,4.32,0.77,5.73,2.31c1.41,1.54,2.11,3.56,2.11,6.06v12.86c0,1.79,0.26,3,0.77,3.65
		c0.51,0.65,1.46,0.97,2.85,0.97C341.89,493.42,341.96,493.56,341.96,493.82z"/>
	<path d="M351.5,493.19c-2.08-1.27-3.67-2.99-4.79-5.16c-1.12-2.17-1.68-4.52-1.68-7.07c0-2.9,0.74-5.37,2.21-7.4
		c1.47-2.03,3.35-3.55,5.63-4.56c2.28-1,4.62-1.51,7.03-1.51c2.77,0,5.18,0.65,7.24,1.94c2.05,1.3,3.63,3,4.72,5.13
		c1.09,2.12,1.64,4.39,1.64,6.8c0,2.68-0.67,5.06-2.01,7.14c-1.34,2.08-3.14,3.7-5.39,4.86c-2.26,1.16-4.7,1.74-7.34,1.74
		C356,495.1,353.58,494.46,351.5,493.19z M364.77,491.11c0.91-1.72,1.37-4.19,1.37-7.4c0-3.13-0.4-5.81-1.21-8.04
		s-1.85-3.92-3.15-5.06c-1.3-1.14-2.68-1.71-4.15-1.71c-3.57,0-5.36,3.19-5.36,9.58c0,2.99,0.38,5.64,1.14,7.94
		c0.76,2.3,1.79,4.09,3.08,5.36c1.29,1.27,2.72,1.91,4.29,1.91C362.52,493.69,363.85,492.83,364.77,491.11z"/>
	<path d="M397.36,489.54c0.18,0,0.32,0.09,0.44,0.27c0.11,0.18,0.1,0.31-0.03,0.4c-1.65,1.65-3.26,2.87-4.82,3.65
		c-1.56,0.78-3.22,1.17-4.96,1.17c-1.97,0-3.64-0.47-5.03-1.41c-1.38-0.94-2.08-2.52-2.08-4.76v-14.87c0-1.38-0.25-2.34-0.74-2.88
		c-0.49-0.54-1.39-0.8-2.68-0.8c-0.04,0-0.1-0.07-0.17-0.2s-0.1-0.27-0.1-0.4c0-0.18,0.02-0.32,0.07-0.43
		c0.04-0.11,0.11-0.17,0.2-0.17c2.28-0.09,4.12-0.58,5.53-1.47c1.41-0.89,2.49-2.25,3.25-4.09c0.09-0.18,0.28-0.27,0.57-0.27
		c0.29,0,0.44,0.09,0.44,0.27v5.36c2.59-0.04,5.49-0.25,8.71-0.6c0.09,0,0.19,0.17,0.3,0.5c0.11,0.33,0.17,0.7,0.17,1.11
		c0,0.45-0.08,0.88-0.23,1.31c-0.16,0.42-0.32,0.61-0.5,0.57c-2.9-0.63-5.72-0.96-8.44-1v15.88c0,1.7,0.44,2.95,1.31,3.75
		c0.87,0.8,2.02,1.21,3.45,1.21c1.79,0,3.53-0.67,5.23-2.01L397.36,489.54z"/>
	<path d="M424.16,489.8c0.09,0,0.19,0.09,0.3,0.27c0.11,0.18,0.12,0.31,0.03,0.4c-1.65,1.61-3.33,2.77-5.03,3.48
		c-1.7,0.71-3.55,1.07-5.56,1.07c-2.81,0-5.25-0.59-7.3-1.78c-2.06-1.18-3.62-2.77-4.69-4.76c-1.07-1.99-1.61-4.14-1.61-6.47
		c0-2.59,0.65-4.98,1.94-7.17c1.29-2.19,3.09-3.92,5.39-5.19c2.3-1.27,4.9-1.91,7.81-1.91c2.77,0,4.91,0.63,6.43,1.88
		c1.52,1.25,2.28,3.19,2.28,5.83c0,1.38-0.25,2.08-0.74,2.08l-16.28,0.07c-0.04,0.31-0.07,0.83-0.07,1.54c0,3.93,0.9,7.01,2.71,9.25
		c1.81,2.23,4.41,3.35,7.81,3.35c1.21,0,2.23-0.13,3.08-0.4c0.85-0.27,1.96-0.76,3.35-1.47L424.16,489.8z M409.22,471.01
		c-0.98,1.27-1.63,3.03-1.94,5.26l9.71-0.13c-0.04-2.28-0.38-4.02-1-5.23c-0.63-1.21-1.65-1.81-3.08-1.81
		C411.43,469.1,410.21,469.74,409.22,471.01z"/>
</g>
</svg>
